#Comment line ignore any data following # character
#Hierarchical Translation and Rotation (.htr) file
[Header]		#Header keywords are followed by a single value
FileType htr		#Single word string
DataType HTRS		#Translation followed by rotation and scale data
FileVersion 1		#integer
NumSegments 18		#integer
NumFrames 9		#integer
DataFrameRate 60		#integer, data frame rate in this file
EulerRotationOrder ZYX
CalibrationUnits mm
RotationUnits Degrees
GlobalAxisofGravity Y
BoneLengthAxis Y
ScaleFactor 1.000000
[SegmentNames&Hierarchy]
#CHILD	PARENT
Head	Neck
Neck	Chest
Chest	Hips
LeftShoulder	LeftCollar
RightShoulder	RightCollar
LeftElbow	LeftShoulder
RightElbow	RightShoulder
LeftWrist	LeftElbow
RightWrist	RightElbow
Hips	GLOBAL
LeftHip	Hips
RightHip	Hips
LeftKnee	LeftHip
RightKnee	RightHip
LeftAnkle	LeftKnee
RightAnkle	RightKnee
LeftCollar	Chest
RightCollar	Chest
[BasePosition]
#SegmentName Tx, Ty, Tz, Rx, Ry, Rz, BoneLength
Head	0.000003	141.966248	0.000002	-37.745777	-8.179454	6.203664	80.000046
Neck	0.000000	379.566772	0.000000	32.855431	-5.194619	1.823337	141.966263
Chest	0.000000	94.891693	0.000000	0.000002	12.877405	-0.000012	379.566803
LeftShoulder	0.000003	154.023666	0.000005	171.957962	-79.977570	-157.094910	215.219986
RightShoulder	-0.000001	146.408707	-0.000001	20.020029	60.865143	-8.207462	240.139038
LeftElbow	0.000007	215.219971	-0.000011	-24.162848	54.442085	-17.491318	336.440125
RightElbow	-0.000021	240.139038	0.000007	-21.925606	-43.617706	23.102211	322.101532
LeftWrist	-0.000014	336.440094	0.000002	173.178864	-0.531422	156.628021	100.348160
RightWrist	0.000005	322.101501	0.000026	1.868945	1.747480	14.125610	109.739998
Hips	377.886597	1077.530640	704.474976	-179.011169	36.455761	-178.006714	94.891701
LeftHip	95.336761	5.238981	-8.336124	-0.485735	-9.415434	-176.117065	525.916443
RightHip	-96.119095	-4.691877	-4.857316	2.457280	-1.423929	-179.125565	528.302429
LeftKnee	0.000004	525.916443	0.000001	-10.646533	-14.541370	-1.855900	514.711975
RightKnee	-0.000002	528.302429	0.000004	-12.768950	2.118825	-3.063609	521.764099
LeftAnkle	0.000003	514.711975	0.000009	97.965164	-0.000001	0.000000	253.446518
RightAnkle	0.000001	521.764099	-0.000002	99.242271	0.000002	0.000000	256.283173
LeftCollar	19.999998	366.483276	-15.126845	169.660507	-4.312743	90.901894	154.023682
RightCollar	-19.999996	366.483215	-15.126822	171.369568	4.171492	-91.645760	146.408707
#Beginning of Data. Separated by tabs
[Head]
#Fr	Tx	Ty	Tz	Rx	Ry	Rz	SF
193	-0.000002	13.213745	0.000000	-8.515169	16.988411	9.061998	0.999999
194	-0.000003	13.023544	0.000000	-8.675785	16.918098	9.200645	1.000000
195	-0.000006	12.924057	-0.000016	-9.046710	16.804111	9.019874	1.000000
196	-0.000007	12.970200	0.000002	-9.418664	16.634604	8.947258	0.999999
197	0.000003	12.931732	0.000004	-9.565294	16.393663	8.833596	0.999999
198	-0.000004	13.193314	0.000004	-9.825773	16.111115	8.814358	1.000000
199	-0.000005	13.262207	-0.000005	-9.819150	15.774924	8.722160	1.000000
200	-0.000004	13.588074	0.000008	-9.986904	15.426709	8.286408	1.000000
201	0.000007	13.805283	-0.000004	-9.881481	15.011961	8.010908	0.999999
[Neck]
#Fr	Tx	Ty	Tz	Rx	Ry	Rz	SF
193	0.000004	-9.645905	-0.000005	-1.356847	4.095298	-9.199564	1.093077
194	-0.000012	-9.556274	0.000003	-1.277517	4.061930	-9.225308	1.091737
195	0.000001	-9.452301	0.000000	-1.117315	4.041811	-9.095726	1.091036
196	0.000002	-9.234558	-0.000000	-0.946625	4.001449	-8.996666	1.091361
197	-0.000001	-9.126587	-0.000000	-0.806278	3.939541	-8.812819	1.091090
198	0.000002	-8.981628	0.000002	-0.626073	3.877899	-8.729425	1.092933
199	-0.000001	-9.014984	0.000001	-0.494225	3.814643	-8.595884	1.093418
200	-0.000001	-9.031738	0.000001	-0.347346	3.780704	-8.334719	1.095713
201	0.000003	-9.160858	-0.000000	-0.266046	3.741050	-8.208652	1.097243
[Chest]
#Fr	Tx	Ty	Tz	Rx	Ry	Rz	SF
193	-0.000000	-2.411537	-0.000000	0.000001	-6.922032	0.000010	0.974587
194	-0.000000	-2.389038	0.000000	-0.000017	-7.060207	0.000025	0.974823
195	-0.000000	-2.363113	0.000000	-0.000018	-7.017115	0.000030	0.975097
196	0.000000	-2.308670	-0.000000	0.000008	-6.745735	-0.000001	0.975671
197	-0.000000	-2.281708	0.000000	-0.000006	-6.310291	0.000017	0.975955
198	-0.000000	-2.245346	0.000000	0.000009	-5.985216	-0.000007	0.976337
199	-0.000000	-2.253685	0.000000	-0.000010	-5.500525	0.000015	0.976249
200	-0.000000	-2.257988	-0.000000	-0.000018	-4.846504	0.000032	0.976205
201	0.000000	-2.290215	0.000000	-0.000018	-4.336854	0.000027	0.975865
[LeftShoulder]
#Fr	Tx	Ty	Tz	Rx	Ry	Rz	SF
193	0.000001	4.621948	-0.000005	82.511482	46.823914	107.837326	1.164820
194	-0.000005	5.306793	-0.000016	84.594460	46.225086	107.752258	1.167050
195	-0.000007	5.921204	-0.000004	86.331772	45.721436	107.298187	1.169243
196	-0.000005	6.558441	-0.000020	87.734840	45.314503	106.474228	1.170815
197	-0.000000	7.174622	-0.000013	88.832314	44.992279	105.261497	1.171717
198	0.000003	7.747910	-0.000014	89.639252	44.747467	103.656288	1.172204
199	-0.000002	8.239029	-0.000001	90.282791	44.592701	101.982399	1.172738
200	-0.000009	8.724792	-0.000006	90.555054	44.458038	99.958328	1.173166
201	0.000004	9.172714	-0.000018	90.383911	44.306046	97.413780	1.173485
[RightShoulder]
#Fr	Tx	Ty	Tz	Rx	Ry	Rz	SF
193	-0.000003	9.672348	0.000002	59.397396	-49.572166	-80.828041	1.116167
194	0.000004	9.534683	0.000005	59.255276	-49.251575	-80.346313	1.116083
195	0.000001	9.347183	-0.000006	59.123474	-48.924728	-79.892159	1.115987
196	0.000001	9.073059	-0.000016	59.013496	-48.617218	-79.506859	1.115917
197	0.000001	8.735550	0.000005	58.869396	-48.290401	-79.123840	1.116020
198	0.000000	8.439301	0.000014	58.723755	-47.950687	-78.740608	1.116154
199	0.000006	8.120941	0.000005	58.541573	-47.630688	-78.382904	1.116311
200	0.000002	7.800568	0.000004	58.298992	-47.316696	-78.001480	1.116564
201	0.000001	7.520569	0.000016	58.044338	-47.020012	-77.644691	1.116803
[LeftElbow]
#Fr	Tx	Ty	Tz	Rx	Ry	Rz	SF
193	-0.000011	35.472549	0.000001	-30.073843	-19.048054	2.687997	0.846774
194	-0.000012	35.952438	0.000004	-28.411354	-19.809662	3.408621	0.852062
195	-0.000018	36.424622	0.000029	-27.029390	-20.950600	4.325620	0.856632
196	-0.000014	36.762894	0.000003	-25.785431	-22.220961	5.247124	0.860541
197	-0.000003	36.957001	0.000012	-24.652845	-23.564119	6.120993	0.864021
198	-0.000008	37.061676	0.000000	-23.476000	-24.744402	6.764636	0.867140
199	0.000002	37.176651	0.000010	-22.250010	-25.827244	7.242388	0.870262
200	-0.000012	37.268738	0.000019	-20.835257	-26.629200	7.478093	0.873413
201	-0.000006	37.337494	0.000007	-19.270103	-27.090656	7.483256	0.876877
[RightElbow]
#Fr	Tx	Ty	Tz	Rx	Ry	Rz	SF
193	0.000014	27.896301	0.000002	-1.030389	19.169594	-2.815983	0.959290
194	0.000011	27.876068	-0.000014	-1.073363	19.230644	-2.814590	0.960640
195	0.000025	27.852997	-0.000035	-1.149888	19.272539	-2.778135	0.961995
196	0.000015	27.836060	-0.000006	-1.201427	19.160717	-2.726832	0.963416
197	0.000027	27.860931	-0.000010	-1.253659	19.039686	-2.670016	0.964684
198	0.000036	27.893127	-0.000003	-1.266305	18.815889	-2.615726	0.965889
199	0.000017	27.930725	0.000015	-1.237472	18.527542	-2.570749	0.966845
200	0.000039	27.991547	-0.000011	-1.165108	18.168236	-2.541579	0.967493
201	0.000005	28.048889	0.000004	-1.077158	17.819340	-2.526968	0.967824
[LeftWrist]
#Fr	Tx	Ty	Tz	Rx	Ry	Rz	SF
193	0.000007	-51.551361	0.000001	72.170914	-83.588188	-94.062050	1.010652
194	0.000038	-49.772369	0.000007	69.765160	-83.904648	-91.933495	1.011347
195	0.000018	-48.234772	-0.000014	67.801758	-84.189178	-90.052979	1.012639
196	0.000027	-46.919708	-0.000029	66.431778	-84.419739	-88.595810	1.013197
197	-0.000000	-45.748688	-0.000029	66.413338	-84.521439	-88.290680	1.014490
198	-0.000005	-44.699371	-0.000027	66.963036	-84.601082	-88.391731	1.014311
199	0.000026	-43.649048	0.000013	68.518692	-84.681992	-89.123550	1.011933
200	0.000016	-42.588837	0.000032	71.021217	-84.673248	-90.709091	1.008606
201	0.000026	-41.423492	0.000023	73.840950	-84.678978	-92.465454	1.003741
[RightWrist]
#Fr	Tx	Ty	Tz	Rx	Ry	Rz	SF
193	-0.000002	-13.112885	-0.000032	-73.542862	82.827438	-86.999107	0.959833
194	-0.000010	-12.677765	-0.000038	-74.016869	82.740295	-87.283264	0.960157
195	0.000013	-12.241333	-0.000057	-74.626717	82.635582	-87.631462	0.960853
196	-0.000023	-11.783813	-0.000039	-75.521126	82.457939	-88.165344	0.961580
197	0.000032	-11.375305	-0.000038	-76.290611	82.297028	-88.617043	0.962191
198	-0.000005	-10.987030	-0.000017	-77.124214	82.132118	-89.077225	0.962938
199	0.000007	-10.679230	-0.000005	-77.841370	82.020348	-89.424850	0.963846
200	0.000009	-10.470490	-0.000031	-78.481819	81.930992	-89.714119	0.964417
201	0.000002	-10.364044	-0.000022	-79.019180	81.888969	-89.906731	0.965213
[Hips]
#Fr	Tx	Ty	Tz	Rx	Ry	Rz	SF
193	-1066.524658	18.087036	-699.552612	162.854630	-63.449104	-159.904190	0.974586
194	-1069.424316	16.811890	-695.496094	163.228958	-63.944630	-160.190857	0.974823
195	-1072.504639	15.506104	-690.906433	163.598892	-64.385880	-160.495621	0.975097
196	-1075.798218	14.104736	-685.879822	164.005096	-64.746132	-160.849426	0.975670
197	-1079.102783	12.907104	-680.185242	164.365509	-65.088509	-161.200470	0.975955
198	-1082.452393	11.832764	-674.467529	164.679214	-65.628845	-161.491791	0.976338
199	-1085.755127	11.182983	-668.472412	165.049210	-66.118416	-161.855026	0.976250
200	-1089.162476	10.790771	-662.372131	165.500900	-66.537613	-162.293549	0.976204
201	-1092.477539	10.777832	-656.439514	165.976395	-67.133575	-162.728348	0.975865
[LeftHip]
#Fr	Tx	Ty	Tz	Rx	Ry	Rz	SF
193	1.653931	-0.872622	2.935415	-1.128506	0.411003	2.900179	0.962563
194	1.622459	-0.769538	3.093774	-1.176820	0.408392	2.962275	0.961988
195	1.585983	-0.589143	3.135231	-1.229762	0.372109	3.060509	0.961377
196	1.313026	-0.466793	3.033296	-1.281748	0.236801	3.216266	0.960747
197	1.146370	-0.274681	2.846047	-1.389347	0.080254	3.397139	0.960555
198	1.153099	-0.099061	2.882280	-1.423305	0.041295	3.498922	0.960412
199	1.110558	-0.083832	2.465346	-1.434412	-0.049375	3.548149	0.960387
200	0.936417	-0.295636	1.727184	-1.352330	-0.158414	3.627523	0.960180
201	0.918800	-0.457220	1.564594	-1.214595	-0.141800	3.597296	0.960640
[RightHip]
#Fr	Tx	Ty	Tz	Rx	Ry	Rz	SF
193	-0.396080	-1.098692	-1.711944	18.422386	0.457803	-2.686945	1.020182
194	-0.325394	-1.202436	-1.706800	18.133680	0.582732	-2.838279	1.019553
195	-0.298241	-1.376225	-1.560201	17.686876	0.660134	-2.848109	1.018643
196	-0.111435	-1.453238	-1.221007	17.069649	0.717191	-2.836360	1.017240
197	-0.091400	-1.584240	-0.650682	16.304062	0.714540	-2.734443	1.015527
198	-0.124290	-1.717566	-0.463036	15.541695	0.761128	-2.707169	1.013468
199	-0.239388	-1.724328	-0.109383	14.708800	0.679007	-2.661564	1.011419
200	-0.265762	-1.559064	0.091951	13.930022	0.538445	-2.666437	1.009660
201	-0.256119	-1.406336	-0.096087	13.285300	0.523441	-2.709236	1.007104
[LeftKnee]
#Fr	Tx	Ty	Tz	Rx	Ry	Rz	SF
193	-0.000009	-19.688660	0.000000	1.460393	-23.577608	-3.852395	0.974689
194	-0.000008	-19.991364	0.000002	1.593587	-23.113508	-4.000165	0.974458
195	-0.000001	-20.312683	-0.000002	1.649760	-22.659567	-4.078910	0.974271
196	-0.000002	-20.643921	-0.000007	1.639194	-22.170389	-4.137596	0.973874
197	-0.000005	-20.744629	-0.000003	1.626483	-21.765987	-4.163941	0.973489
198	-0.000000	-20.820007	-0.000000	1.559169	-21.350948	-4.047328	0.973201
199	-0.000003	-20.833038	-0.000004	1.470528	-20.924620	-3.813690	0.972894
200	0.000002	-20.941986	-0.000005	1.237234	-20.557108	-3.549213	0.972800
201	-0.000004	-20.699860	0.000002	0.993028	-20.225189	-3.159836	0.972897
[RightKnee]
#Fr	Tx	Ty	Tz	Rx	Ry	Rz	SF
193	0.000008	10.661987	0.000004	-17.639288	-18.014824	0.844254	0.988832
194	-0.000007	10.330200	-0.000018	-17.324432	-18.710258	0.501961	0.991828
195	-0.000010	9.848938	-0.000002	-16.701384	-19.075342	-0.085298	0.994293
196	0.000004	9.108093	0.000010	-15.789001	-19.212309	-0.654011	0.995916
197	-0.000008	8.202881	-0.000000	-14.740488	-19.016897	-1.300879	0.996969
198	0.000001	7.115051	0.000024	-13.672671	-18.480114	-1.866240	0.997672
199	-0.000005	6.032593	0.000003	-12.522165	-17.803818	-2.431587	0.997456
200	0.000017	5.103455	0.000012	-11.438972	-17.119989	-2.782120	0.997114
201	0.000006	3.753174	-0.000005	-10.528984	-16.384527	-3.054990	0.997973
[LeftAnkle]
#Fr	Tx	Ty	Tz	Rx	Ry	Rz	SF
193	-0.000001	-13.027832	-0.000009	0.167089	-0.000000	-0.000000	1.029755
194	0.000003	-13.146973	-0.000001	0.237349	0.000000	-0.000001	1.029280
195	0.000002	-13.243042	-0.000001	0.324861	-0.000000	-0.000002	1.029258
196	-0.000008	-13.447388	-0.000027	0.410847	-0.000000	-0.000000	1.029433
197	-0.000001	-13.645538	0.000007	0.502002	-0.000000	-0.000001	1.028865
198	-0.000007	-13.793854	-0.000015	0.544372	0.000000	-0.000001	1.028341
199	0.000001	-13.951996	-0.000016	0.523625	-0.000000	-0.000001	1.028394
200	-0.000008	-14.000244	-0.000001	0.481335	-0.000000	-0.000001	1.028205
201	0.000008	-13.950256	-0.000010	0.410664	0.000000	-0.000001	1.027850
[RightAnkle]
#Fr	Tx	Ty	Tz	Rx	Ry	Rz	SF
193	0.000009	-5.827148	-0.000027	-5.915277	0.000001	0.000004	1.000369
194	-0.000011	-4.263855	-0.000014	-4.606740	0.000001	0.000003	1.002563
195	0.000005	-2.977417	-0.000003	-3.421933	0.000001	0.000004	1.001814
196	0.000020	-2.130676	-0.000009	-2.347571	0.000001	0.000001	1.002344
197	-0.000005	-1.581604	-0.000039	-1.415631	-0.000001	0.000005	1.001184
198	0.000031	-1.214661	0.000006	-0.654055	0.000001	0.000005	1.001623
199	-0.000005	-1.327515	-0.000021	-0.157460	-0.000000	-0.000001	1.002079
200	0.000001	-1.505493	-0.000022	0.260187	0.000000	0.000002	1.002251
201	0.000025	-1.057434	-0.000026	0.641294	-0.000001	0.000004	1.002399
[LeftCollar]
#Fr	Tx	Ty	Tz	Rx	Ry	Rz	SF
193	0.000011	-9.644867	-0.000925	-1.390376	-0.421483	5.279515	1.030008
194	-0.000004	-9.507446	-0.042128	-0.924798	-0.313538	5.736975	1.034454
195	0.000011	-9.346222	-0.091136	-0.424396	-0.176157	6.178660	1.038443
196	0.000011	-9.063446	-0.146350	0.041857	-0.009639	6.600015	1.042581
197	0.000025	-8.877899	-0.211621	0.447593	0.207290	6.987338	1.046581
198	-0.000015	-8.662842	-0.269987	0.795800	0.397044	7.399771	1.050303
199	-0.000015	-8.622833	-0.330496	1.129010	0.598044	7.802349	1.053492
200	0.000000	-8.574158	-0.384004	1.456907	0.771036	8.184442	1.056646
201	0.000017	-8.650146	-0.427064	1.786839	0.896715	8.564007	1.059554
[RightCollar]
#Fr	Tx	Ty	Tz	Rx	Ry	Rz	SF
193	0.000000	-9.644867	-0.000953	-6.474225	-0.019929	-8.372043	1.066064
194	-0.000027	-9.507385	-0.042176	-6.504371	-0.202068	-8.350410	1.065124
195	-0.000006	-9.346069	-0.091159	-6.486629	-0.410916	-8.348366	1.063843
196	0.000023	-9.063416	-0.146355	-6.408597	-0.638325	-8.371914	1.061971
197	0.000006	-8.877808	-0.211654	-6.256310	-0.900207	-8.425581	1.059666
198	-0.000004	-8.662811	-0.269996	-6.150172	-1.140768	-8.478632	1.057642
199	-0.000002	-8.622833	-0.330510	-6.006519	-1.387018	-8.558225	1.055468
200	0.000015	-8.574097	-0.384016	-5.845429	-1.601440	-8.672971	1.053280
201	0.000000	-8.650085	-0.427101	-5.723241	-1.776047	-8.763736	1.051367
[EndOfFile]
